<svg xmlns="http://www.w3.org/2000/svg" viewBox="0 0 400 42" fill="none">
  <!-- Northwell dots icon -->
  <g transform="translate(0, 3)">
    <!-- Row 1 -->
    <rect x="0" y="0" width="5" height="5" rx="1" fill="#00B140"/>
    <rect x="7" y="0" width="5" height="5" rx="1" fill="#00B140"/>
    <rect x="14" y="0" width="5" height="5" rx="1" fill="#009ADF"/>
    <rect x="21" y="0" width="5" height="5" rx="1" fill="#009ADF"/>
    <!-- Row 2 -->
    <rect x="0" y="7" width="5" height="5" rx="1" fill="#F7941D"/>
    <rect x="7" y="7" width="5" height="5" rx="1" fill="#F7941D"/>
    <rect x="14" y="7" width="5" height="5" rx="1" fill="#00B140"/>
    <rect x="21" y="7" width="5" height="5" rx="1" fill="#00B140"/>
    <!-- Row 3 -->
    <rect x="0" y="14" width="5" height="5" rx="1" fill="#ED1C24"/>
    <rect x="7" y="14" width="5" height="5" rx="1" fill="#ED1C24"/>
    <rect x="14" y="14" width="5" height="5" rx="1" fill="#F7941D"/>
    <rect x="21" y="14" width="5" height="5" rx="1" fill="#F7941D"/>
    <!-- Row 4 -->
    <rect x="0" y="21" width="5" height="5" rx="1" fill="#9B59B6"/>
    <rect x="7" y="21" width="5" height="5" rx="1" fill="#9B59B6"/>
    <rect x="14" y="21" width="5" height="5" rx="1" fill="#ED1C24"/>
    <rect x="21" y="21" width="5" height="5" rx="1" fill="#ED1C24"/>
    <!-- Row 5 -->
    <rect x="0" y="28" width="5" height="5" rx="1" fill="#009ADF"/>
    <rect x="7" y="28" width="5" height="5" rx="1" fill="#9B59B6"/>
    <rect x="14" y="28" width="5" height="5" rx="1" fill="#9B59B6"/>
    <rect x="21" y="28" width="5" height="5" rx="1" fill="#009ADF"/>
  </g>
  <!-- Northwell text -->
  <text x="36" y="26" font-family="Arial, Helvetica, sans-serif" font-size="26" font-weight="700" fill="#34383C">Northwell</text>
  <text x="210" y="26" font-family="Arial, Helvetica, sans-serif" font-size="26" font-weight="300" fill="#717376">Health</text>
  <text x="283" y="14" font-family="Arial, Helvetica, sans-serif" font-size="10" fill="#717376">&#174;</text>
</svg>
